<svg width="60" height="60" viewBox="0 0 60 60" fill="none" xmlns="http://www.w3.org/2000/svg">
<path d="M52.3774 9.59599C44.7588 1.16238 35.4473 -0.287149 31.7439 0.042289V28.3739H40.9496C39.9338 20.4674 48.1448 12.5609 52.3774 9.59599Z" fill="#B22727" fill-opacity="0.75"/>
<path d="M52.3774 50.404C44.7588 58.8376 35.4473 60.2871 31.7439 59.9577V31.6261H40.9496C39.9338 39.5326 48.1448 47.4391 52.3774 50.404Z" fill="#B22727" fill-opacity="0.75"/>
<path d="M8.25338 9.59605C15.8719 1.16244 25.1834 -0.287088 28.8869 0.04235V28.374H19.6812C20.697 20.4675 12.4859 12.561 8.25338 9.59605Z" fill="#B22727" fill-opacity="0.75"/>
<path d="M8.25338 50.404C15.8719 58.8376 25.1834 60.2871 28.8869 59.9577V31.6261H19.6812C20.697 39.5326 12.4859 47.4391 8.25338 50.404Z" fill="#B22727" fill-opacity="0.75"/>
<path d="M53.9687 11.8598C45.5883 15.8131 43.7048 24.2686 43.8107 28.0023H60C59.4921 19.0415 55.7675 13.507 53.9687 11.8598Z" fill="#B22727" fill-opacity="0.75"/>
<path d="M53.9687 47.7685C45.5883 43.8152 43.7048 35.3597 43.8107 31.626H60C59.4921 40.5867 55.7675 46.1213 53.9687 47.7685Z" fill="#B22727" fill-opacity="0.75"/>
<path d="M6.03131 11.8598C14.4117 15.8131 16.2952 24.2686 16.1893 28.0023H-2.09808e-05C0.50788 19.0415 4.23249 13.507 6.03131 11.8598Z" fill="#B22727" fill-opacity="0.75"/>
<path d="M6.03131 47.7685C14.4117 43.8152 16.2952 35.3597 16.1893 31.626H-2.09808e-05C0.50788 40.5867 4.23249 46.1213 6.03131 47.7685Z" fill="#B22727" fill-opacity="0.75"/>
<path d="M13.8523 34H10.7585V25.2727H13.8778C14.7557 25.2727 15.5114 25.4474 16.1449 25.7969C16.7784 26.1435 17.2656 26.642 17.6065 27.2926C17.9503 27.9432 18.1222 28.7216 18.1222 29.6278C18.1222 30.5369 17.9503 31.3182 17.6065 31.9716C17.2656 32.625 16.7756 33.1264 16.1364 33.4759C15.5 33.8253 14.7386 34 13.8523 34ZM12.6037 32.419H13.7756C14.321 32.419 14.7798 32.3224 15.152 32.1293C15.527 31.9332 15.8082 31.6307 15.9957 31.2216C16.1861 30.8097 16.2812 30.2784 16.2812 29.6278C16.2812 28.983 16.1861 28.456 15.9957 28.0469C15.8082 27.6378 15.5284 27.3366 15.1562 27.1435C14.7841 26.9503 14.3253 26.8537 13.7798 26.8537H12.6037V32.419ZM22.5411 34H20.5638L23.5766 25.2727H25.9544L28.9629 34H26.9857L24.7996 27.267H24.7314L22.5411 34ZM22.4175 30.5696H27.0879V32.0099H22.4175V30.5696ZM32.0534 34V25.2727H33.8985V32.4787H37.64V34H32.0534ZM40.902 34V25.2727H46.7826V26.794H42.7471V28.8736H46.4801V30.3949H42.7471V32.4787H46.7997V34H40.902ZM49.2826 26.6108L47.9829 24.6719H49.6576L50.5652 26.6108H49.2826Z" fill="#100A0B"/>
</svg>
